<svg xmlns="http://www.w3.org/2000/svg" width="464" height="259"><g transform="translate(290.25, 0)"><g class="node" transform="translate(0, 0)"><rect class="node" x="-27" y="0" width="54" height="51" rx="5" ry="5" fill="none" stroke="hsla(0, 100%, 0%, 0.2)" stroke-width="1" stroke-dasharray="5"></rect><rect x="-25" y="0" width="50" height="41" fill="hsl(101, 100%, 70%)" rx="5" ry="5"></rect></g><g class="node" transform="translate(-148.25, 51)"><rect class="node" x="-25.5" y="0" width="51" height="56" rx="5" ry="5" fill="none" stroke="hsla(0, 100%, 0%, 0.2)" stroke-width="1" stroke-dasharray="5"></rect><rect x="-23.5" y="0" width="47" height="46" fill="hsl(338, 100%, 70%)" rx="5" ry="5"></rect></g><g class="node" transform="translate(1.75, 51)"><rect class="node" x="-30" y="0" width="60" height="51" rx="5" ry="5" fill="none" stroke="hsla(0, 100%, 0%, 0.2)" stroke-width="1" stroke-dasharray="5"></rect><rect x="-28" y="0" width="56" height="41" fill="hsl(263, 100%, 70%)" rx="5" ry="5"></rect></g><g class="node" transform="translate(56.25, 51)"><rect class="node" x="-24.5" y="0" width="49" height="53" rx="5" ry="5" fill="none" stroke="hsla(0, 100%, 0%, 0.2)" stroke-width="1" stroke-dasharray="5"></rect><rect x="-22.5" y="0" width="45" height="43" fill="hsl(6, 100%, 70%)" rx="5" ry="5"></rect></g><g class="node" transform="translate(109.25, 51)"><rect class="node" x="-27" y="0" width="54" height="34" rx="5" ry="5" fill="none" stroke="hsla(0, 100%, 0%, 0.2)" stroke-width="1" stroke-dasharray="5"></rect><rect x="-25" y="0" width="50" height="24" fill="hsl(93, 100%, 70%)" rx="5" ry="5"></rect></g><g class="node" transform="translate(155.75, 51)"><rect class="node" x="-18" y="0" width="36" height="55" rx="5" ry="5" fill="none" stroke="hsla(0, 100%, 0%, 0.2)" stroke-width="1" stroke-dasharray="5"></rect><rect x="-16" y="0" width="32" height="45" fill="hsl(75, 100%, 70%)" rx="5" ry="5"></rect></g><g class="node" transform="translate(-265.25, 107)"><rect class="node" x="-11" y="0" width="22" height="54" rx="5" ry="5" fill="none" stroke="hsla(0, 100%, 0%, 0.2)" stroke-width="1" stroke-dasharray="5"></rect><rect x="-9" y="0" width="18" height="44" fill="hsl(218, 100%, 70%)" rx="5" ry="5"></rect></g><g class="node" transform="translate(-94.25, 107)"><rect class="node" x="-26" y="0" width="52" height="42" rx="5" ry="5" fill="none" stroke="hsla(0, 100%, 0%, 0.2)" stroke-width="1" stroke-dasharray="5"></rect><rect x="-24" y="0" width="48" height="32" fill="hsl(127, 100%, 70%)" rx="5" ry="5"></rect></g><g class="node" transform="translate(-44.25, 107)"><rect class="node" x="-24" y="0" width="48" height="35" rx="5" ry="5" fill="none" stroke="hsla(0, 100%, 0%, 0.2)" stroke-width="1" stroke-dasharray="5"></rect><rect x="-22" y="0" width="44" height="25" fill="hsl(132, 100%, 70%)" rx="5" ry="5"></rect></g><g class="node" transform="translate(1.75, 102)"><rect class="node" x="-22" y="0" width="44" height="37" rx="5" ry="5" fill="none" stroke="hsla(0, 100%, 0%, 0.2)" stroke-width="1" stroke-dasharray="5"></rect><rect x="-20" y="0" width="40" height="27" fill="hsl(268, 100%, 70%)" rx="5" ry="5"></rect></g><g class="node" transform="translate(93.75, 85)"><rect class="node" x="-13" y="0" width="26" height="49" rx="5" ry="5" fill="none" stroke="hsla(0, 100%, 0%, 0.2)" stroke-width="1" stroke-dasharray="5"></rect><rect x="-11" y="0" width="22" height="39" fill="hsl(9, 100%, 70%)" rx="5" ry="5"></rect></g><g class="node" transform="translate(122.25, 85)"><rect class="node" x="-15.5" y="0" width="31" height="35" rx="5" ry="5" fill="none" stroke="hsla(0, 100%, 0%, 0.2)" stroke-width="1" stroke-dasharray="5"></rect><rect x="-13.5" y="0" width="27" height="25" fill="hsl(264, 100%, 70%)" rx="5" ry="5"></rect></g><g class="node" transform="translate(-265.25, 161)"><rect class="node" x="-25" y="0" width="50" height="47" rx="5" ry="5" fill="none" stroke="hsla(0, 100%, 0%, 0.2)" stroke-width="1" stroke-dasharray="5"></rect><rect x="-23" y="0" width="46" height="37" fill="hsl(252, 100%, 70%)" rx="5" ry="5"></rect></g><g class="node" transform="translate(-208.75, 149)"><rect class="node" x="-31.5" y="0" width="63" height="74" rx="5" ry="5" fill="none" stroke="hsla(0, 100%, 0%, 0.2)" stroke-width="1" stroke-dasharray="5"></rect><rect x="-29.5" y="0" width="59" height="64" fill="hsl(193, 100%, 70%)" rx="5" ry="5"></rect></g><g class="node" transform="translate(-145.25, 149)"><rect class="node" x="-32" y="0" width="64" height="31" rx="5" ry="5" fill="none" stroke="hsla(0, 100%, 0%, 0.2)" stroke-width="1" stroke-dasharray="5"></rect><rect x="-30" y="0" width="60" height="21" fill="hsl(342, 100%, 70%)" rx="5" ry="5"></rect></g><g class="node" transform="translate(-84.25, 149)"><rect class="node" x="-29" y="0" width="58" height="71" rx="5" ry="5" fill="none" stroke="hsla(0, 100%, 0%, 0.2)" stroke-width="1" stroke-dasharray="5"></rect><rect x="-27" y="0" width="54" height="61" fill="hsl(189, 100%, 70%)" rx="5" ry="5"></rect></g><g class="node" transform="translate(-32.75, 149)"><rect class="node" x="-19" y="0" width="38" height="30" rx="5" ry="5" fill="none" stroke="hsla(0, 100%, 0%, 0.2)" stroke-width="1" stroke-dasharray="5"></rect><rect x="-17" y="0" width="34" height="20" fill="hsl(34, 100%, 70%)" rx="5" ry="5"></rect></g><g class="node" transform="translate(20.75, 149)"><rect class="node" x="-31" y="0" width="62" height="72" rx="5" ry="5" fill="none" stroke="hsla(0, 100%, 0%, 0.2)" stroke-width="1" stroke-dasharray="5"></rect><rect x="-29" y="0" width="58" height="62" fill="hsl(283, 100%, 70%)" rx="5" ry="5"></rect></g><g class="node" transform="translate(-32.75, 179)"><rect class="node" x="-22.5" y="0" width="45" height="46" rx="5" ry="5" fill="none" stroke="hsla(0, 100%, 0%, 0.2)" stroke-width="1" stroke-dasharray="5"></rect><rect x="-20.5" y="0" width="41" height="36" fill="hsl(180, 100%, 70%)" rx="5" ry="5"></rect></g><g class="node" transform="translate(-32.75, 225)"><rect class="node" x="-11" y="0" width="22" height="34" rx="5" ry="5" fill="none" stroke="hsla(0, 100%, 0%, 0.2)" stroke-width="1" stroke-dasharray="5"></rect><rect x="-9" y="0" width="18" height="24" fill="hsl(15, 100%, 70%)" rx="5" ry="5"></rect></g><path class="link" d="M0,41C0,46,-148.25,46,-148.25,51" fill="none" stroke="#BBB" stroke-width="1"></path><path class="link" d="M0,41C0,46,1.75,46,1.75,51" fill="none" stroke="#BBB" stroke-width="1"></path><path class="link" d="M0,41C0,46,56.25,46,56.25,51" fill="none" stroke="#BBB" stroke-width="1"></path><path class="link" d="M0,41C0,46,109.25,46,109.25,51" fill="none" stroke="#BBB" stroke-width="1"></path><path class="link" d="M0,41C0,46,155.75,46,155.75,51" fill="none" stroke="#BBB" stroke-width="1"></path><path class="link" d="M-148.25,97C-148.25,102,-265.25,102,-265.25,107" fill="none" stroke="#BBB" stroke-width="1"></path><path class="link" d="M-148.25,97C-148.25,102,-94.25,102,-94.25,107" fill="none" stroke="#BBB" stroke-width="1"></path><path class="link" d="M-148.25,97C-148.25,102,-44.25,102,-44.25,107" fill="none" stroke="#BBB" stroke-width="1"></path><path class="link" d="M1.75,92C1.75,97,1.75,97,1.75,102" fill="none" stroke="#BBB" stroke-width="1"></path><path class="link" d="M109.25,75C109.25,80,93.75,80,93.75,85" fill="none" stroke="#BBB" stroke-width="1"></path><path class="link" d="M109.25,75C109.25,80,122.25,80,122.25,85" fill="none" stroke="#BBB" stroke-width="1"></path><path class="link" d="M-265.25,151C-265.25,156,-265.25,156,-265.25,161" fill="none" stroke="#BBB" stroke-width="1"></path><path class="link" d="M-94.25,139C-94.25,144,-208.75,144,-208.75,149" fill="none" stroke="#BBB" stroke-width="1"></path><path class="link" d="M-94.25,139C-94.25,144,-145.25,144,-145.25,149" fill="none" stroke="#BBB" stroke-width="1"></path><path class="link" d="M-94.25,139C-94.25,144,-84.25,144,-84.25,149" fill="none" stroke="#BBB" stroke-width="1"></path><path class="link" d="M-94.25,139C-94.25,144,-32.75,144,-32.75,149" fill="none" stroke="#BBB" stroke-width="1"></path><path class="link" d="M-94.25,139C-94.25,144,20.75,144,20.75,149" fill="none" stroke="#BBB" stroke-width="1"></path><path class="link" d="M-32.75,169C-32.75,174,-32.75,174,-32.75,179" fill="none" stroke="#BBB" stroke-width="1"></path><path class="link" d="M-32.75,215C-32.75,220,-32.75,220,-32.75,225" fill="none" stroke="#BBB" stroke-width="1"></path></g></svg>
